<?xml version="1.0" encoding="UTF-8"?>
<svg width="1366px" height="725px" viewBox="0 0 1366 725" version="1.1" xmlns="http://www.w3.org/2000/svg" xmlns:xlink="http://www.w3.org/1999/xlink" style="background: #132437;">
    <!-- Generator: Sketch 49.3 (51167) - http://www.bohemiancoding.com/sketch -->
    <title>home-1 copy 39</title>
    <desc>Created with Sketch.</desc>
    <defs>
        <linearGradient x1="50%" y1="0%" x2="50%" y2="100%" id="linearGradient-1">
            <stop stop-color="#132438" offset="0%"></stop>
            <stop stop-color="#102136" offset="35.718479%"></stop>
            <stop stop-color="#0A1D31" offset="100%"></stop>
        </linearGradient>
        <radialGradient cx="50%" cy="50%" fx="50%" fy="50%" r="56.3808967%" gradientTransform="translate(0.500000,0.500000),scale(1.000000,0.745370),rotate(90.000000),scale(1.000000,0.787501),translate(-0.500000,-0.500000)" id="radialGradient-2">
            <stop stop-color="#E7E4BA" offset="0%"></stop>
            <stop stop-color="#E7E4BA" stop-opacity="0" offset="100%"></stop>
        </radialGradient>
    </defs>
    <g id="home-1-copy-39" stroke="none" stroke-width="1" fill="none" fill-rule="evenodd">
        <rect id="Rectangle-21" fill="url(#linearGradient-1)" x="0" y="0" width="1366" height="725"></rect>
        <path d="M135.270347,683 C163.635349,683 194.907822,677.332689 211.497675,652.745528 C224.134931,634.016355 218.944193,600.093001 218.944193,574.08416 C218.944193,548.398874 223.852918,514.4485 211.497675,495.826234 C201.878887,481.328449 180.039088,469.204927 152.156656,467.190585 C131.979059,465.732872 102.659509,472.861919 92.1728245,480.898986 C53.3657049,510.641029 79.3093442,513.996485 65.8355527,574.08416 C57.2653838,612.303656 53.4041169,651.536311 74.8277105,670.977447 C87.0857209,682.101149 117.08367,683 135.270347,683 Z" id="Oval" fill="url(#radialGradient-2)"></path>
        <path d="M454.916032,593.534752 C417.138201,613.124978 373.032332,631.151161 388.679892,664.744957 C404.327453,698.338753 536.148154,664.744957 640.597333,664.744957 C676.119909,664.744957 719.158548,680.582652 762.424511,680.582652 C846.376077,680.582652 933.008435,664.744957 980.037349,664.744957 C1017.39691,664.744957 1150.32403,696.521003 1219.59405,680.582652 C1282.46172,666.117421 1338.09236,665.237693 1357.87748,644.064092 C1399.46262,599.560599 1332.05162,561.037983 1211.33878,544.082556 C1090.62594,527.127129 1140.01501,490.816717 980.037349,490.816717 C820.059686,490.816717 808.155578,534.109623 640.597333,534.109623 C473.039088,534.109623 492.693864,573.944526 454.916032,593.534752 Z" id="Path-22" fill="#1E3143"></path>
        <path d="M-1.43599782,55.2889326 C125.726523,50.5892869 214.593998,60.3348681 265.166427,84.5256764 C341.02507,120.811889 470.767096,108.477969 570.40312,142.527433 C670.039144,176.576896 843.132752,182.852513 908.08327,162.515061 C973.033788,142.177609 1113.65214,187.479721 1028.54438,279.138715 C943.43662,370.797709 593.517957,290.513271 512.65048,335.61397 C431.783004,380.714668 393.005626,361.294177 289.351935,369.928451 C220.249474,375.684634 123.320163,372.806542 -1.43599782,361.294177 L-1.43599782,55.2889326 Z" id="Path-21" fill="#314458"></path>
        <g id="Group-2" transform="translate(65.000000, 65.000000)" fill="#FFFFFF" fill-opacity="0.835484601">
            <circle id="Oval-2-Copy-14" cx="156" cy="74" r="5"></circle>
            <circle id="Oval-2-Copy-16" cx="209" cy="313" r="5"></circle>
            <circle id="Oval-2-Copy-17" cx="5" cy="389" r="5"></circle>
            <circle id="Oval-2-Copy-18" cx="146" cy="544" r="5"></circle>
            <circle id="Oval-2-Copy-19" cx="701" cy="15" r="5"></circle>
            <circle id="Oval-2-Copy-20" cx="1014" cy="5" r="5"></circle>
            <circle id="Oval-2-Copy-21" cx="1115" cy="84" r="5"></circle>
            <circle id="Oval-2-Copy-22" cx="1239" cy="10" r="5"></circle>
            <circle id="Oval-2-Copy-23" cx="1249" cy="379" r="5"></circle>
            <circle id="Oval-2-Copy-24" cx="1105" cy="578" r="5"></circle>
            <circle id="Oval-2-Copy-15" cx="209" cy="104" r="5"></circle>
        </g>
        <path d="M470,540 L470,560.543589" id="Path-2" stroke="#07000B" stroke-linecap="round"></path>
        <path d="M1077.27035,664 C1105.63535,664 1136.90782,658.332689 1153.49768,633.745528 C1166.13493,615.016355 1160.94419,581.093001 1160.94419,555.08416 C1160.94419,529.398874 1165.85292,495.4485 1153.49768,476.826234 C1143.87889,462.328449 1122.03909,450.204927 1094.15666,448.190585 C1073.97906,446.732872 1044.65951,453.861919 1034.17282,461.898986 C995.365705,491.641029 1021.30934,494.996485 1007.83555,555.08416 C999.265384,593.303656 995.404117,632.536311 1016.82771,651.977447 C1029.08572,663.101149 1059.08367,664 1077.27035,664 Z" id="Oval" fill="url(#radialGradient-2)"></path>
        <path d="M1073.60584,663.459817 C1066.91663,641.734499 1064.04801,629.941359 1065,628.080398 C1066.95714,624.254551 1073.60584,621.171337 1073.60584,617.332541 C1073.60584,616.431878 1062.42574,608.417732 1058.61413,605.165545 C1058.08364,604.712918 1058.06924,600.498082 1058.61413,600.086843 C1060.30652,598.809557 1071.41364,597.404056 1082.95494,597.404056 C1093.30315,597.404056 1101.46138,598.175976 1105.68687,600.086843 C1106.34529,600.384598 1106.01575,604.760276 1105.13713,605.165545 C1101.1074,607.024265 1092.77154,615.877104 1092.12697,617.332541 C1091.48239,618.787978 1099.71725,627.376364 1100.08919,628.080398 C1101.50551,630.761285 1098.85144,642.554425 1092.12697,663.459817 L1102,945 L1065,945 L1073.60584,663.459817 Z" id="Rectangle-4" fill="#071422"></path>
        <path d="M1069.43658,529 L1095.26659,529 C1107.41685,529 1117.26659,538.849736 1117.26659,551 C1117.26659,551.137335 1117.2653,551.274668 1117.26273,551.411979 C1117.07551,561.40793 1116.40826,569.529408 1115.26099,575.776415 C1113.35128,586.174888 1109.64574,593.916083 1104.14434,599 L1060.52053,599 C1053.0406,588.365327 1048.86709,580.624132 1048,575.776415 C1047.40528,572.45146 1047.21847,564.071981 1047.43956,550.637978 L1047.43956,550.637978 C1047.63718,538.630485 1057.42747,529 1069.43658,529 Z" id="Rectangle-5" fill="#E7E4BA"></path>
        <path d="M1059.83596,530.809353 C1058.46564,528.130174 1058.22415,526.23173 1059.11148,525.114021 C1059.6202,524.47322 1063.88437,524.739308 1066.47815,522.920077 C1067.40905,522.267162 1069.51649,520.355998 1070.7787,516.615993 C1071.05712,515.791024 1071.22192,514.369063 1071.2731,512.350108 L1071.2731,512.350108 C1071.28878,511.73163 1071.01735,511.140712 1070.53794,510.749647 L1069.90885,510.236479 C1069.21041,509.666741 1068.80515,508.813161 1068.80515,507.911816 L1068.80514,506.670202 C1068.80514,505.326956 1069.69803,504.147427 1070.99085,503.782825 C1074.52588,502.785874 1078.30946,502.287398 1082.34158,502.287398 C1086.4682,502.287398 1090.61501,502.809511 1094.78202,503.853736 L1094.78202,503.853725 C1096.11674,504.188196 1097.0528,505.387773 1097.0528,506.763757 L1097.0528,507.867531 C1097.0528,508.794081 1096.62467,509.668642 1095.89287,510.236948 L1095.11664,510.839742 C1094.68098,511.178075 1094.40439,511.681317 1094.35229,512.230459 C1094.15753,514.283334 1094.1881,515.745179 1094.44403,516.615993 C1095.46341,520.084523 1097.76207,522.142465 1098.6544,522.920077 C1100.08123,524.163475 1105.08146,524.847739 1105.57207,525.642848 C1106.71976,527.502849 1105.9776,529.225018 1103.34558,530.809353" id="Path-10" fill="#E7E4BA"></path>
        <path d="M1073.11547,502.42521 C1076.45995,494.389326 1079.73313,490.371384 1082.93501,490.371384 C1086.13688,490.371384 1089.41006,494.389326 1092.75454,502.42521" id="Path-11" fill="#071422"></path>
        <rect id="Rectangle-6" fill="#071422" x="1080" y="474" width="6" height="16" rx="3"></rect>
        <path d="M1253.27035,695 C1281.63535,695 1312.90782,689.332689 1329.49768,664.745528 C1342.13493,646.016355 1336.94419,612.093001 1336.94419,586.08416 C1336.94419,560.398874 1341.85292,526.4485 1329.49768,507.826234 C1319.87889,493.328449 1298.03909,481.204927 1270.15666,479.190585 C1249.97906,477.732872 1220.65951,484.861919 1210.17282,492.898986 C1171.3657,522.641029 1197.30934,525.996485 1183.83555,586.08416 C1175.26538,624.303656 1171.40412,663.536311 1192.82771,682.977447 C1205.08572,694.101149 1235.08367,695 1253.27035,695 Z" id="Oval" fill="url(#radialGradient-2)"></path>
        <path d="M1248.60584,705.459817 C1241.91663,683.734499 1239.04801,671.941359 1240,670.080398 C1241.95714,666.254551 1248.60584,663.171337 1248.60584,659.332541 C1248.60584,658.431878 1237.42574,650.417732 1233.61413,647.165545 C1233.08364,646.712918 1233.06924,642.498082 1233.61413,642.086843 C1235.30652,640.809557 1246.41364,639.404056 1257.95494,639.404056 C1268.30315,639.404056 1276.46138,640.175976 1280.68687,642.086843 C1281.34529,642.384598 1281.01575,646.760276 1280.13713,647.165545 C1276.1074,649.024265 1267.77154,657.877104 1267.12697,659.332541 C1266.48239,660.787978 1274.71725,669.376364 1275.08919,670.080398 C1276.50551,672.761285 1273.85144,684.554425 1267.12697,705.459817 L1277,987 L1240,987 L1248.60584,705.459817 Z" id="Rectangle-4" fill="#071422"></path>
        <path d="M1244.43658,571 L1270.26659,571 C1282.41685,571 1292.26659,580.849736 1292.26659,593 C1292.26659,593.137335 1292.2653,593.274668 1292.26273,593.411979 C1292.07551,603.40793 1291.40826,611.529408 1290.26099,617.776415 C1288.35128,628.174888 1284.64574,635.916083 1279.14434,641 L1235.52053,641 C1228.0406,630.365327 1223.86709,622.624132 1223,617.776415 C1222.40528,614.45146 1222.21847,606.071981 1222.43956,592.637978 L1222.43956,592.637978 C1222.63718,580.630485 1232.42747,571 1244.43658,571 Z" id="Rectangle-5" fill="#E7E4BA"></path>
        <path d="M1234.83596,572.809353 C1233.46564,570.130174 1233.22415,568.23173 1234.11148,567.114021 C1234.6202,566.47322 1238.88437,566.739308 1241.47815,564.920077 C1242.40905,564.267162 1244.51649,562.355998 1245.7787,558.615993 C1246.05712,557.791024 1246.22192,556.369063 1246.2731,554.350108 L1246.2731,554.350108 C1246.28878,553.73163 1246.01735,553.140712 1245.53794,552.749647 L1244.90885,552.236479 C1244.21041,551.666741 1243.80515,550.813161 1243.80515,549.911816 L1243.80514,548.670202 C1243.80514,547.326956 1244.69803,546.147427 1245.99085,545.782825 C1249.52588,544.785874 1253.30946,544.287398 1257.34158,544.287398 C1261.4682,544.287398 1265.61501,544.809511 1269.78202,545.853736 L1269.78202,545.853725 C1271.11674,546.188196 1272.0528,547.387773 1272.0528,548.763757 L1272.0528,549.867531 C1272.0528,550.794081 1271.62467,551.668642 1270.89287,552.236948 L1270.11664,552.839742 C1269.68098,553.178075 1269.40439,553.681317 1269.35229,554.230459 C1269.15753,556.283334 1269.1881,557.745179 1269.44403,558.615993 C1270.46341,562.084523 1272.76207,564.142465 1273.6544,564.920077 C1275.08123,566.163475 1280.08146,566.847739 1280.57207,567.642848 C1281.71976,569.502849 1280.9776,571.225018 1278.34558,572.809353" id="Path-10" fill="#E7E4BA"></path>
        <path d="M1248.11547,544.42521 C1251.45995,536.389326 1254.73313,532.371384 1257.93501,532.371384 C1261.13688,532.371384 1264.41006,536.389326 1267.75454,544.42521" id="Path-11" fill="#071422"></path>
        <rect id="Rectangle-6" fill="#071422" x="1255" y="516" width="6" height="16" rx="3"></rect>
        <path d="M130.605845,682.459817 C123.916629,660.734499 121.048014,648.941359 122,647.080398 C123.957136,643.254551 130.605845,640.171337 130.605845,636.332541 C130.605845,635.431878 119.425742,627.417732 115.614127,624.165545 C115.083642,623.712918 115.069238,619.498082 115.614127,619.086843 C117.306519,617.809557 128.413641,616.404056 139.954937,616.404056 C150.303154,616.404056 158.461382,617.175976 162.686867,619.086843 C163.345292,619.384598 163.015752,623.760276 162.137125,624.165545 C158.107396,626.024265 149.77154,634.877104 149.126966,636.332541 C148.482392,637.787978 156.71725,646.376364 157.089193,647.080398 C158.505514,649.761285 155.851438,661.554425 149.126966,682.459817 L159,964 L122,964 L130.605845,682.459817 Z" id="Rectangle-4" fill="#071422"></path>
        <path d="M126.436585,548 L152.26659,548 C164.416854,548 174.26659,557.849736 174.26659,570 C174.26659,570.137335 174.265304,570.274668 174.262732,570.411979 C174.075511,580.40793 173.408263,588.529408 172.260986,594.776415 C170.351283,605.174888 166.645736,612.916083 161.144343,618 L117.520531,618 C110.040596,607.365327 105.867085,599.624132 105,594.776415 C104.405283,591.45146 104.218471,583.071981 104.439564,569.637978 L104.439565,569.637978 C104.637181,557.630485 114.427465,548 126.436585,548 Z" id="Rectangle-5" fill="#E7E4BA"></path>
        <path d="M116.835963,549.809353 C115.465645,547.130174 115.224151,545.23173 116.111481,544.114021 C116.620201,543.47322 120.884371,543.739308 123.478151,541.920077 C124.409047,541.267162 126.516489,539.355998 127.778701,535.615993 C128.05712,534.791024 128.22192,533.369063 128.273101,531.350108 L128.273102,531.350108 C128.288781,530.73163 128.017347,530.140712 127.537942,529.749647 L126.908851,529.236479 C126.21041,528.666741 125.805147,527.813161 125.805147,526.911816 L125.805143,525.670202 C125.805143,524.326956 126.698031,523.147427 127.990847,522.782825 C131.525877,521.785874 135.309455,521.287398 139.341582,521.287398 C143.468199,521.287398 147.615012,521.809511 151.78202,522.853736 L151.782023,522.853725 C153.116737,523.188196 154.052799,524.387773 154.052799,525.763757 L154.052799,526.867531 C154.052799,527.794081 153.624666,528.668642 152.892872,529.236948 L152.116644,529.839742 C151.680981,530.178075 151.404394,530.681317 151.352294,531.230459 C151.157525,533.283334 151.188104,534.745179 151.44403,535.615993 C152.463408,539.084523 154.762067,541.142465 155.654397,541.920077 C157.081229,543.163475 162.081462,543.847739 162.572073,544.642848 C163.719762,546.502849 162.977596,548.225018 160.345578,549.809353" id="Path-10" fill="#E7E4BA"></path>
        <path d="M130.115471,521.42521 C133.459955,513.389326 136.733134,509.371384 139.935008,509.371384 C143.136881,509.371384 146.41006,513.389326 149.754544,521.42521" id="Path-11" fill="#071422"></path>
        <rect id="Rectangle-6" fill="#071422" x="137" y="493" width="6" height="16" rx="3"></rect>
        <circle id="Oval-2" fill-opacity="0.693331069" fill="#FFFFFF" cx="140" cy="112" r="3"></circle>
        <circle id="Oval-2-Copy" fill-opacity="0.693331069" fill="#FFFFFF" cx="656" cy="36" r="3"></circle>
        <circle id="Oval-2-Copy-2" fill-opacity="0.693331069" fill="#FFFFFF" cx="1284" cy="177" r="3"></circle>
        <circle id="Oval-2-Copy-3" fill-opacity="0.693331069" fill="#FFFFFF" cx="1083" cy="220" r="3"></circle>
        <circle id="Oval-2-Copy-4" fill-opacity="0.693331069" fill="#FFFFFF" cx="1175" cy="42" r="3"></circle>
        <circle id="Oval-2-Copy-5" fill-opacity="0.693331069" fill="#FFFFFF" cx="915" cy="106" r="3"></circle>
        <circle id="Oval-2-Copy-6" fill-opacity="0.693331069" fill="#FFFFFF" cx="277" cy="471" r="3"></circle>
        <circle id="Oval-2-Copy-7" fill-opacity="0.693331069" fill="#FFFFFF" cx="41" cy="540" r="3"></circle>
        <circle id="Oval-2-Copy-8" fill-opacity="0.693331069" fill="#FFFFFF" cx="283" cy="656" r="3"></circle>
        <circle id="Oval-2-Copy-9" fill-opacity="0.693331069" fill="#FFFFFF" cx="1137" cy="515" r="3"></circle>
        <circle id="Oval-2-Copy-10" fill-opacity="0.693331069" fill="#FFFFFF" cx="1318" cy="555" r="3"></circle>
        <circle id="Oval-2-Copy-11" fill-opacity="0.693331069" fill="#FFFFFF" cx="315" cy="251" r="3"></circle>
        <circle id="Oval-2-Copy-12" fill-opacity="0.693331069" fill="#FFFFFF" cx="91" cy="223" r="3"></circle>
        <circle id="Oval-2-Copy-13" fill-opacity="0.693331069" fill="#FFFFFF" cx="359" cy="39" r="3"></circle>
    </g>
</svg>